Coordinates
version=1
nRows=16
nColumns=22
inDegrees=yes

Units are S.I. units (second, meters, Newtons, ...)
If the header above contains a line with 'inDegrees', this indicates whether rotational values are in degrees (yes) or radians (no).

endheader
time	pelvis_tilt	pelvis_list	pelvis_rotation	pelvis_tx	pelvis_ty	pelvis_tz	hip_flexion_r	hip_adduction_r	hip_rotation_r	knee_angle_r	ankle_angle_r	subtalar_angle_r	hip_flexion_l	hip_adduction_l	hip_rotation_l	knee_angle_l	ankle_angle_l	subtalar_angle_l	lumbar_extension	lumbar_bending	lumbar_rotation
      4.49000000	      6.65807120	      3.54952576	    164.34068576	     -0.22639275	      0.83874722	     -0.53811834	    -11.30586821	     -1.04021528	     12.46931082	     -8.74039651	     23.82230484	      1.76260858	     38.26600596	    -19.01577605	    -10.98699982	    -12.85341948	      2.11938908	      0.92152913	     -2.93342233	      6.32138807	     19.09568524
      4.50000000	      6.67808144	      3.71818943	    163.97531404	     -0.23630778	      0.83642033	     -0.53650049	    -11.90117610	     -1.28264886	     12.69456071	     -8.86404679	     23.79896908	      2.06344036	     38.44320982	    -19.36969838	    -11.42620184	    -13.57875377	      2.32330807	     -0.03066320	     -2.88080859	      6.37568763	     19.14978476
      4.51000000	      6.72478109	      3.89968049	    163.62277806	     -0.24650051	      0.83405979	     -0.53476162	    -12.49385895	     -1.52265375	     12.90237028	     -8.97230988	     23.69850999	      2.38850142	     38.62372547	    -19.72608731	    -11.72489688	    -14.46385894	      2.42513787	     -0.95864720	     -2.78775519	      6.44094661	     19.20685490
      4.52000000	      6.80543098	      4.07906812	    163.27990948	     -0.25691943	      0.83168275	     -0.53287975	    -13.05544910	     -1.77193927	     13.10819757	     -9.08801626	     23.51426594	      2.73204215	     38.82280355	    -20.06998143	    -11.91404819	    -15.47876458	      2.36506822	     -1.73044114	     -2.65152556	      6.50753435	     19.25882936
      4.53000000	      6.91937895	      4.24651723	    162.95077209	     -0.26751195	      0.82932467	     -0.53088410	    -13.56664019	     -2.03258324	     13.31839108	     -9.24003326	     23.25649989	      3.10333678	     39.05725375	    -20.39551734	    -12.03591269	    -16.60218626	      2.05143650	     -2.27082245	     -2.47152090	      6.55787654	     19.30019012
      4.54000000	      7.04428162	      4.35508420	    162.62960865	     -0.27824904	      0.82708031	     -0.52877501	    -14.04109798	     -2.36005428	     13.57598287	     -9.40737084	     22.88268328	      3.35658543	     39.31201444	    -20.66268333	    -12.16508313	    -17.81459089	      1.44306987	     -2.41457217	     -2.26237426	      6.53533096	     19.33813394
      4.55000000	      7.21223434	      4.44780097	    162.35360238	     -0.28898747	      0.82491357	     -0.52650729	    -14.37417610	     -2.67454932	     13.78768328	     -9.74496234	     22.53272704	      3.92042110	     39.70476406	    -20.90042683	    -12.20997425	    -19.18237102	      0.53863807	     -2.40088817	     -2.01630989	      6.49633582	     19.34644834
      4.56000000	      7.35426992	      4.42966624	    162.12089849	     -0.29977124	      0.82301947	     -0.52410313	    -14.65105319	     -3.09726887	     14.03242471	    -10.16186957	     22.07287462	      4.45470093	     40.12218685	    -21.00806665	    -12.25493151	    -20.62976907	     -0.62767167	     -2.01600822	     -1.77180943	      6.31521953	     19.30940248
      4.57000000	      7.46133073	      4.32186612	    161.95536608	     -0.31054658	      0.82144261	     -0.52159280	    -14.85686931	     -3.58789912	     14.26926907	    -10.71430216	     21.55868495	      5.03123502	     40.59245422	    -20.99324738	    -12.24259900	    -22.20948059	     -1.87864429	     -1.41966011	     -1.54713659	      6.00251490	     19.22713546
      4.58000000	      7.49280860	      4.11488465	    161.88447685	     -0.32130213	      0.82029994	     -0.51896014	    -15.02047181	     -4.15373411	     14.49105128	    -11.42281859	     20.95042588	      5.66963700	     41.05237616	    -20.81118375	    -12.14830001	    -23.88922610	     -3.02505568	     -0.74221795	     -1.38473621	      5.53722829	     19.04792994
      4.59000000	      7.44073614	      3.80885288	    161.90907073	     -0.33202851	      0.81965318	     -0.51626170	    -15.14695361	     -4.78601660	     14.68409601	    -12.29179059	     20.21784540	      6.35324797	     41.46577251	    -20.45416731	    -11.98260759	    -25.64383181	     -3.91009371	     -0.10318821	     -1.29103784	      4.90880790	     18.82573507
      4.60000000	      7.29873029	      3.42153489	    162.02377222	     -0.34270868	      0.81957050	     -0.51354851	    -15.24171920	     -5.45724062	     14.88751765	    -13.33043154	     19.28433569	      7.08282530	     41.77482118	    -19.93633742	    -11.79970906	    -27.40265211	     -4.41924522	      0.42517227	     -1.27845554	      4.13707034	     18.54830151
      4.61000000	      7.09053352	      2.94546733	    162.24702885	     -0.35331494	      0.82000190	     -0.51080217	    -15.25090388	     -6.14976210	     14.99796858	    -14.59935015	     18.20878035	      7.66213793	     41.97879728	    -19.23893210	    -11.62803941	    -29.09824846	     -4.57590747	      0.75190439	     -1.31834624	      3.22399893	     18.21903150
      4.62000000	      6.84097620	      2.44427048	    162.53220187	     -0.36382386	      0.82097878	     -0.50809836	    -15.17637027	     -6.79931460	     15.13669057	    -16.05473275	     16.83666174	      8.27009223	     42.02698909	    -18.44623352	    -11.49334986	    -30.62987998	     -4.35411295	      0.95513034	     -1.40571965	      2.25398262	     17.88310491
      4.63000000	      6.61881522	      1.95585198	    162.89418702	     -0.37418207	      0.82235833	     -0.50538006	    -14.93019212	     -7.33477878	     15.21863656	    -17.74477489	     15.22852956	      8.54838761	     41.99720158	    -17.59932601	    -11.38460524	    -31.97134129	     -3.89851856	      1.01830585	     -1.47907811	      1.30188054	     17.52277293
      4.64000000	      6.37306515	      1.53053694	    163.25576736	     -0.38428386	      0.82422494	     -0.50269918	    -14.51125179	     -7.74655553	     15.26259222	    -19.73587212	     13.39999651	      8.98131270	     41.77205559	    -16.77592352	    -11.34816221	    -33.04815421	     -3.30742359	      0.99922190	     -1.62556110	      0.41251216	     17.26542817
